HIERARCHY
ROOT joint_Root
{
	OFFSET 0.0 0.0 0.0
	CHANNELS 6 Xposition Yposition Zposition Zrotation Xrotation Yrotation 
	JOINT Hips
	{
		OFFSET -0.726466 93.3139 -2.00062
		CHANNELS 6 Xposition Yposition Zposition Zrotation Xrotation Yrotation 
		JOINT Spine
		{
			OFFSET 15.7357 0.0 0.0
			CHANNELS 6 Xposition Yposition Zposition Zrotation Xrotation Yrotation 
			JOINT Chest
			{
				OFFSET 8.98455 -0.406207 0.0
				CHANNELS 6 Xposition Yposition Zposition Zrotation Xrotation Yrotation 
				JOINT Neck
				{
					OFFSET 16.3773 0.0 0.0
					CHANNELS 6 Xposition Yposition Zposition Zrotation Xrotation Yrotation 
					JOINT Head
					{
						OFFSET 6.45672 0.0 0.0
						CHANNELS 6 Xposition Yposition Zposition Zrotation Xrotation Yrotation 
						End Site
						{
							OFFSET 0.0 0.0 0.0
						}
					}
				}
				JOINT Shoulder_L
				{
					OFFSET 12.9942 -0.242716 4.98039
					CHANNELS 6 Xposition Yposition Zposition Zrotation Xrotation Yrotation 
					JOINT UpperArm_L
					{
						OFFSET 5.34809 0.0 0.0
						CHANNELS 6 Xposition Yposition Zposition Zrotation Xrotation Yrotation 
						JOINT LowerArm_L
						{
							OFFSET 24.3286 1.87007e-05 0.0
							CHANNELS 6 Xposition Yposition Zposition Zrotation Xrotation Yrotation 
							JOINT Hand_L
							{
								OFFSET 22.2916 0.0 0.0
								CHANNELS 6 Xposition Yposition Zposition Zrotation Xrotation Yrotation 
								End Site
								{
									OFFSET 0.0 0.0 0.0
								}
							}
						}
					}
				}
				JOINT Shoulder_R
				{
					OFFSET 12.9945 -0.242716 -4.98039
					CHANNELS 6 Xposition Yposition Zposition Zrotation Xrotation Yrotation 
					JOINT UpperArm_R
					{
						OFFSET -5.34813 0.0 0.0
						CHANNELS 6 Xposition Yposition Zposition Zrotation Xrotation Yrotation 
						JOINT LowerArm_R
						{
							OFFSET -24.3289 0.000322201 0.0
							CHANNELS 6 Xposition Yposition Zposition Zrotation Xrotation Yrotation 
							JOINT Hand_R
							{
								OFFSET -22.2915 -0.000108084 0.0
								CHANNELS 6 Xposition Yposition Zposition Zrotation Xrotation Yrotation 
								End Site
								{
									OFFSET 0.0 0.0 0.0
								}
							}
						}
					}
				}
			}
		}
		JOINT UpperLeg_L
		{
			OFFSET -2.19248 -6.46944 0.0
			CHANNELS 6 Xposition Yposition Zposition Zrotation Xrotation Yrotation 
			JOINT LowerLeg_L
			{
				OFFSET 39.0811 0.0 -1.23785e-05
				CHANNELS 6 Xposition Yposition Zposition Zrotation Xrotation Yrotation 
				JOINT Foot_L
				{
					OFFSET 40.9854 0.0 -1.26872e-05
					CHANNELS 6 Xposition Yposition Zposition Zrotation Xrotation Yrotation 
					JOINT Toes_L
					{
						OFFSET 11.7543 0.0 0.0
						CHANNELS 6 Xposition Yposition Zposition Zrotation Xrotation Yrotation 
						End Site
						{
							OFFSET 0.0 0.0 0.0
						}
					}
				}
			}
		}
		JOINT UpperLeg_R
		{
			OFFSET -2.19251 6.46944 0.0
			CHANNELS 6 Xposition Yposition Zposition Zrotation Xrotation Yrotation 
			JOINT LowerLeg_R
			{
				OFFSET -39.0811 -0.00228153 -0.0401928
				CHANNELS 6 Xposition Yposition Zposition Zrotation Xrotation Yrotation 
				JOINT Foot_R
				{
					OFFSET -40.9854 0.0 0.0
					CHANNELS 6 Xposition Yposition Zposition Zrotation Xrotation Yrotation 
					JOINT Toes_R
					{
						OFFSET -11.7543 0.0 0.0
						CHANNELS 6 Xposition Yposition Zposition Zrotation Xrotation Yrotation 
						End Site
						{
							OFFSET 0.0 0.0 0.0
						}
					}
				}
			}
		}
	}
}
MOTION
Frames:	7
Frame Time:	0.0333333
0.000000 0.000000 0.000000 0.000000 0.000000 -0.000000 -1.161690 91.808600 -2.116810 88.156200 -3.142090 5.462930 15.735700 0.000005 -0.000001 72.030500 84.856000 -68.933500 8.984550 -0.406207 -0.000000 2.120890 -3.324180 6.251050 16.377300 -0.000001 -0.000001 6.905200 0.407307 -4.824340 6.456720 -0.000001 -0.000000 4.629960 1.603490 -3.327410 12.994200 -0.242716 4.980390 -84.932700 -10.150500 -63.290600 5.348090 -0.000007 -0.000001 -59.976900 -53.512000 -92.024400 24.328600 0.000019 0.000005 -3.551260 -2.766360 -52.128800 22.291600 -0.000001 0.000005 16.063100 5.653190 -15.328000 12.994500 -0.242716 -4.980390 90.793900 -2.212130 -70.252500 -5.348130 -0.000001 -0.000004 -51.590900 76.887500 1.959590 -24.328900 0.000322 -0.000009 23.422000 2.547380 -84.142900 -22.291500 -0.000108 -0.000004 42.100800 5.663010 -25.824800 -2.192480 -6.469440 -0.000000 -169.996000 -18.372200 -2.917650 39.081100 -0.000007 -0.000012 -0.152712 0.325564 25.130000 40.985400 -0.000006 -0.000013 -5.398360 -0.881144 -64.680800 11.754300 -0.000000 0.000003 -0.000047 -0.000532 -16.598200 -2.192510 6.469440 -0.000001 175.408000 21.148400 177.293000 -39.081100 -0.002282 -0.040193 0.044056 -0.089314 24.521500 -40.985400 0.000008 0.000006 0.975675 2.453200 -64.929400 -11.754300 -0.000006 -0.000006 -0.005885 -0.069789 -19.413300
0.000000 0.000000 0.000000 0.000000 0.000000 -0.000000 -1.159530 91.802300 -2.112560 88.157900 -3.226100 5.479760 15.735700 0.000005 -0.000001 72.228700 84.861500 -69.133500 8.984550 -0.406207 -0.000000 2.120180 -3.286880 6.246750 16.377300 -0.000001 -0.000001 6.904570 0.368573 -4.840330 6.456720 -0.000001 -0.000000 4.583490 1.585600 -3.296390 12.994200 -0.242716 4.980390 -84.932600 -10.131400 -63.247500 5.348090 -0.000007 -0.000001 -60.063500 -53.570800 -92.058400 24.328600 0.000019 0.000005 -3.624180 -2.824460 -52.118000 22.291600 -0.000001 0.000005 15.979500 5.653750 -15.384300 12.994500 -0.242716 -4.980390 90.784600 -2.184060 -70.233100 -5.348130 -0.000001 -0.000004 -51.667800 76.842900 2.075090 -24.328900 0.000322 -0.000009 23.430900 2.536130 -84.171000 -22.291500 -0.000108 -0.000004 42.040400 5.663320 -25.785500 -2.192480 -6.469440 -0.000000 -169.974000 -18.450100 -2.889060 39.081100 -0.000007 -0.000012 -0.154387 0.328669 25.161300 40.985400 -0.000006 -0.000013 -5.397830 -0.858838 -64.706800 11.754300 -0.000000 0.000003 -0.000049 -0.000554 -16.599100 -2.192510 6.469440 -0.000001 175.395000 21.102500 177.312000 -39.081100 -0.002282 -0.040193 0.042439 -0.085786 24.517500 -40.985400 0.000008 0.000006 0.973520 2.514270 -64.968600 -11.754300 -0.000006 -0.000006 -0.005710 -0.068182 -19.347800
0.000000 0.000000 0.000000 0.000000 0.000000 -0.000000 -1.155330 91.801500 -2.086630 88.167500 -3.234320 5.506510 15.735700 0.000005 -0.000001 72.135600 84.860700 -69.041600 8.984550 -0.406207 -0.000000 2.117030 -3.303300 6.244460 16.377300 -0.000001 -0.000001 6.900720 0.393142 -4.872770 6.456720 -0.000001 -0.000000 4.602260 1.558810 -3.231690 12.994200 -0.242716 4.980390 -84.934300 -10.116400 -63.221200 5.348090 -0.000007 -0.000001 -60.084500 -53.664300 -92.014600 24.328600 0.000019 0.000005 -3.515050 -2.736030 -52.149400 22.291600 -0.000001 0.000005 16.073400 5.652810 -15.289500 12.994500 -0.242716 -4.980390 90.781100 -2.174870 -70.239400 -5.348130 -0.000001 -0.000004 -51.981200 76.751200 2.399600 -24.328900 0.000322 -0.000009 23.476700 2.546700 -84.159600 -22.291500 -0.000108 -0.000004 42.124000 5.663280 -25.788500 -2.192480 -6.469440 -0.000000 -169.989000 -18.409600 -2.839870 39.081100 -0.000007 -0.000012 -0.152076 0.323808 25.157200 40.985400 -0.000006 -0.000013 -5.412120 -0.938031 -64.731200 11.754300 -0.000000 0.000003 -0.000041 -0.000478 -16.596200 -2.192510 6.469440 -0.000001 175.357000 21.166900 177.360000 -39.081100 -0.002282 -0.040193 0.043709 -0.088544 24.523500 -40.985400 0.000008 0.000006 0.996512 2.552400 -64.988200 -11.754300 -0.000006 -0.000006 -0.005782 -0.068841 -19.374700
0.000000 0.000000 0.000000 0.000000 0.000000 -0.000000 -1.154450 91.791500 -2.066750 88.127100 -3.277240 5.516520 15.735700 0.000005 -0.000001 72.060400 84.870000 -68.951100 8.984550 -0.406207 -0.000000 2.096050 -3.311790 6.274630 16.377300 -0.000001 -0.000001 6.938550 0.398438 -4.846470 6.456720 -0.000001 -0.000000 4.605800 1.605950 -3.270760 12.994200 -0.242716 4.980390 -84.921100 -10.123500 -63.177000 5.348090 -0.000007 -0.000001 -60.074400 -53.783600 -91.891200 24.328600 0.000019 0.000005 -3.698930 -2.868940 -52.252800 22.291600 -0.000001 0.000005 16.079700 5.653810 -15.390300 12.994500 -0.242716 -4.980390 90.778300 -2.164540 -70.217000 -5.348130 -0.000001 -0.000004 -52.001000 76.736100 2.469480 -24.328900 0.000322 -0.000009 23.469000 2.524000 -84.209200 -22.291500 -0.000108 -0.000004 42.024300 5.663460 -25.767800 -2.192480 -6.469440 -0.000000 -169.936000 -18.384800 -2.843450 39.081100 -0.000007 -0.000012 -0.154249 0.327266 25.235900 40.985400 -0.000006 -0.000013 -5.434570 -0.980487 -64.791500 11.754300 -0.000000 0.000003 -0.000045 -0.000516 -16.597600 -2.192510 6.469440 -0.000001 175.388000 21.128300 177.358000 -39.081100 -0.002282 -0.040193 0.043651 -0.088255 24.563200 -40.985400 0.000008 0.000006 0.961597 2.588680 -64.996500 -11.754300 -0.000006 -0.000006 -0.005938 -0.070268 -19.432800
0.000000 0.000000 0.000000 0.000000 0.000000 -0.000000 -1.153020 91.791800 -2.030750 88.138900 -3.304150 5.554190 15.735700 0.000005 -0.000001 72.029300 84.874100 -68.920800 8.984550 -0.406207 -0.000000 2.086570 -3.314780 6.272960 16.377300 -0.000001 -0.000001 6.981160 0.437437 -4.873230 6.456720 -0.000001 -0.000000 4.610850 1.625050 -3.238330 12.994200 -0.242716 4.980390 -84.924900 -10.107600 -63.158600 5.348090 -0.000007 -0.000001 -60.038500 -53.868700 -91.755600 24.328600 0.000019 0.000005 -3.681360 -2.849640 -52.307400 22.291600 -0.000001 0.000005 16.138700 5.653940 -15.403200 12.994500 -0.242716 -4.980390 90.763400 -2.118390 -70.177200 -5.348130 -0.000001 -0.000004 -52.106100 76.656900 2.646880 -24.328900 0.000322 -0.000009 23.439900 2.507820 -84.238000 -22.291500 -0.000108 -0.000004 41.997300 5.662700 -25.861400 -2.192480 -6.469440 -0.000000 -169.936000 -18.336700 -2.755520 39.081100 -0.000007 -0.000012 -0.154076 0.327332 25.206600 40.985400 -0.000006 -0.000013 -5.452520 -1.026680 -64.814600 11.754300 -0.000000 0.000003 -0.000050 -0.000565 -16.599500 -2.192510 6.469440 -0.000001 175.355000 21.146600 177.430000 -39.081100 -0.002282 -0.040193 0.042911 -0.086665 24.556100 -40.985400 0.000008 0.000006 1.048410 2.585940 -65.039800 -11.754300 -0.000006 -0.000006 -0.005468 -0.065927 -19.255900
0.000000 0.000000 0.000000 0.000000 0.000000 -0.000000 -1.160080 91.779400 -2.021640 88.145600 -3.373750 5.556450 15.735700 0.000005 -0.000001 72.205700 84.881600 -69.095300 8.984550 -0.406207 -0.000000 2.080990 -3.280420 6.275940 16.377300 -0.000001 -0.000001 7.001800 0.419226 -4.842580 6.456720 -0.000001 -0.000000 4.580070 1.604780 -3.282010 12.994200 -0.242716 4.980390 -84.932500 -10.104000 -63.185300 5.348090 -0.000007 -0.000001 -59.995200 -54.060200 -91.532600 24.328600 0.000019 0.000005 -3.765700 -2.897230 -52.478200 22.291600 -0.000001 0.000005 15.978200 5.653680 -15.377100 12.994500 -0.242716 -4.980390 90.755900 -2.091300 -70.123200 -5.348130 -0.000001 -0.000004 -52.128600 76.532100 2.672720 -24.328900 0.000322 -0.000009 23.473300 2.522160 -84.214500 -22.291500 -0.000108 -0.000004 41.941300 5.661900 -25.959000 -2.192480 -6.469440 -0.000000 -169.909000 -18.433800 -2.755370 39.081100 -0.000007 -0.000012 -0.157252 0.333189 25.265700 40.985400 -0.000006 -0.000013 -5.459090 -0.985394 -64.849200 11.754300 -0.000000 0.000003 -0.000054 -0.000604 -16.601000 -2.192510 6.469440 -0.000001 175.362000 21.044300 177.389000 -39.081100 -0.002282 -0.040193 0.043439 -0.087510 24.632900 -40.985400 0.000008 0.000006 0.982645 2.566700 -65.076800 -11.754300 -0.000006 -0.000006 -0.005984 -0.070689 -19.450000
0.000000 0.000000 0.000000 0.000000 0.000000 -0.000000 -1.148400 91.782900 -1.989870 88.179400 -3.334510 5.584130 15.735700 0.000005 -0.000001 72.084100 84.877900 -68.986300 8.984550 -0.406207 -0.000000 2.081520 -3.302690 6.251260 16.377300 -0.000001 -0.000001 6.991740 0.401033 -4.843870 6.456720 -0.000001 -0.000000 4.589780 1.577140 -3.219560 12.994200 -0.242716 4.980390 -84.936100 -10.104700 -63.203400 5.348090 -0.000007 -0.000001 -59.925000 -54.181200 -91.271400 24.328600 0.000019 0.000005 -3.827750 -2.926810 -52.650900 22.291600 -0.000001 0.000005 16.011300 5.654050 -15.414800 12.994500 -0.242716 -4.980390 90.732300 -2.024150 -70.105200 -5.348130 -0.000001 -0.000004 -52.302800 76.447800 2.940800 -24.328900 0.000322 -0.000009 23.555200 2.505680 -84.274300 -22.291500 -0.000108 -0.000004 41.862200 5.662470 -25.890000 -2.192480 -6.469440 -0.000000 -169.952000 -18.380800 -2.692150 39.081100 -0.000007 -0.000012 -0.155925 0.331097 25.217500 40.985400 -0.000006 -0.000013 -5.453440 -0.996749 -64.849200 11.754300 -0.000000 0.000003 -0.000050 -0.000570 -16.599700 -2.192510 6.469440 -0.000001 175.286000 21.099700 177.443000 -39.081100 -0.002282 -0.040193 0.043715 -0.088087 24.639000 -40.985400 0.000008 0.000006 1.014980 2.620220 -65.085400 -11.754300 -0.000006 -0.000006 -0.005756 -0.068600 -19.364800
